<svg width="14" height="18" viewBox="0 0 14 18" fill="none" xmlns="http://www.w3.org/2000/svg">
<path fill-rule="evenodd" clip-rule="evenodd" d="M7.83365 1.49999C7.83365 1.03975 7.46055 0.666656 7.00031 0.666656C6.54008 0.666656 6.16698 1.03975 6.16698 1.49999V1.97571C3.34021 2.37993 1.16698 4.81018 1.16698 7.74908L1.16698 11.0827C1.16698 11.0827 1.16699 11.0826 1.16698 11.0827C1.1669 11.0843 1.16633 11.0955 1.16272 11.1174C1.15838 11.1436 1.15068 11.1793 1.13797 11.2252C1.11219 11.3183 1.07117 11.4342 1.01387 11.5712C0.898986 11.8459 0.737017 12.1622 0.557888 12.4813C0.2211 13.0813 0.051337 13.7962 0.178786 14.476C0.313189 15.193 0.774681 15.8182 1.56286 16.1183C2.26695 16.3864 3.20417 16.6316 4.44186 16.7775C4.47131 16.803 4.50614 16.8323 4.54614 16.8643C4.67138 16.9644 4.85031 17.0943 5.07645 17.2235C5.52525 17.48 6.18883 17.75 7.00031 17.75C7.81179 17.75 8.47537 17.48 8.92418 17.2235C9.15031 17.0943 9.32924 16.9644 9.45448 16.8643C9.49449 16.8323 9.52931 16.803 9.55876 16.7775C10.7965 16.6316 11.7337 16.3864 12.4378 16.1183C13.2259 15.8182 13.6874 15.193 13.8218 14.476C13.9493 13.7962 13.7795 13.0813 13.4427 12.4813C13.2636 12.1622 13.1016 11.8459 12.9868 11.5712C12.9295 11.4342 12.8884 11.3183 12.8627 11.2252C12.8499 11.1793 12.8422 11.1436 12.8379 11.1174C12.8343 11.0955 12.8337 11.0845 12.8337 11.083C12.8337 11.0828 12.8337 11.083 12.8337 11.083L12.8336 11.0759V7.74948C12.8336 4.81066 10.6605 2.38 7.83365 1.97572V1.49999ZM2.83365 7.74908C2.83365 5.44809 4.69893 3.58332 7.00031 3.58332C9.30161 3.58332 11.167 5.4484 11.167 7.74948V11.0833C11.167 11.4691 11.3115 11.8852 11.4491 12.2143C11.5986 12.5717 11.7945 12.95 11.9894 13.2971C12.1789 13.6347 12.2241 13.9537 12.1837 14.1689C12.1503 14.3471 12.0612 14.4783 11.8447 14.5608C10.949 14.9018 9.43692 15.25 7.00031 15.25C4.56371 15.25 3.05165 14.9018 2.15593 14.5608C1.93939 14.4783 1.85032 14.3471 1.81692 14.1689C1.77656 13.9537 1.82174 13.6347 2.01122 13.2971C2.20609 12.95 2.402 12.5717 2.5515 12.2143C2.6891 11.8852 2.83365 11.4691 2.83365 11.0833V7.74908Z" fill="#344054"/>
</svg>
